<?xml version="1.0" standalone="no"?>
<!DOCTYPE svg PUBLIC "-//W3C//DTD SVG 20010904//EN"
 "http://www.w3.org/TR/2001/REC-SVG-20010904/DTD/svg10.dtd">
<svg version="1.0" xmlns="http://www.w3.org/2000/svg"
 width="2000.000000pt" height="2000.000000pt" viewBox="0 0 2000.000000 2000.000000"
 preserveAspectRatio="xMidYMid meet">
<metadata>
Created by potrace 1.14, written by Peter Selinger 2001-2017
</metadata>
<g transform="translate(0.000000,2000.000000) scale(0.100000,-0.100000)"
fill="#000000" stroke="none">
<path d="M3360 16750 l0 -330 63 0 c131 -2 244 -8 422 -25 340 -33 709 -168
881 -322 48 -44 138 -182 193 -295 60 -125 78 -177 101 -288 17 -81 18 -335
16 -5410 -1 -4227 -4 -5335 -14 -5375 -7 -27 -15 -62 -17 -76 -15 -109 -100
-305 -177 -406 -94 -124 -160 -177 -311 -247 -118 -56 -339 -123 -464 -142
-21 -3 -49 -7 -63 -9 -159 -26 -375 -43 -552 -44 l-78 -1 0 -320 0 -320 1701
0 1701 0 -4 -567 c-4 -540 -5 -573 -27 -678 -63 -311 -202 -540 -396 -652
-170 -98 -446 -180 -705 -209 -25 -3 -56 -7 -70 -9 -51 -9 -292 -22 -427 -24
l-93 -1 0 -330 0 -331 3018 4 c1659 2 3037 7 3062 9 25 3 90 9 145 12 55 4
116 9 135 11 19 2 64 7 100 11 72 7 106 11 165 19 22 3 58 7 80 10 22 3 51 7
65 9 14 3 47 7 74 11 27 3 83 12 125 20 42 8 90 17 106 20 17 2 41 7 55 10 14
3 45 10 70 15 401 81 934 247 1234 384 31 14 58 26 61 26 2 0 60 27 129 60 69
33 128 59 129 58 2 -2 10 2 18 8 8 7 41 26 74 44 165 88 219 119 325 183 109
67 389 253 400 266 3 3 39 31 80 62 361 269 744 639 970 939 14 18 30 38 35
44 32 35 253 343 295 411 13 22 28 45 32 50 22 27 58 87 58 95 0 6 3 10 8 10
4 0 12 10 18 23 10 19 159 284 184 327 37 63 199 406 252 535 11 28 24 59 29
70 75 179 228 628 254 745 2 8 17 65 33 125 17 61 33 126 38 145 4 19 9 40 10
45 32 136 86 401 100 495 3 19 11 73 19 120 19 115 19 119 50 365 4 28 8 70
11 95 2 25 6 63 8 85 3 22 8 76 11 120 3 44 8 105 10 135 27 345 27 1233 1
1500 -2 19 -7 78 -11 130 -11 162 -13 180 -31 330 -12 103 -26 218 -29 240 -3
14 -9 59 -15 100 -9 65 -37 228 -55 325 -3 17 -17 84 -31 150 -13 66 -27 131
-30 145 -3 14 -10 43 -16 65 -5 22 -11 47 -13 55 -52 261 -240 821 -388 1155
-156 353 -304 621 -547 990 -51 77 -243 333 -295 394 -12 14 -64 76 -116 136
-102 120 -415 437 -519 525 -36 30 -70 60 -76 65 -6 6 -30 26 -54 45 -24 19
-48 40 -54 46 -6 5 -32 26 -57 45 -187 140 -235 175 -250 184 -10 6 -62 40
-116 76 -54 36 -135 87 -180 114 -63 38 -80 52 -71 62 6 7 15 13 20 13 10 0
65 27 119 57 30 18 161 109 221 155 16 12 13 24 -38 153 -31 77 -64 158 -74
180 -10 22 -25 60 -33 85 -9 25 -36 95 -61 155 -25 61 -46 113 -46 118 0 6 -8
26 -55 132 -7 17 -79 197 -160 400 -81 204 -156 388 -165 410 -10 22 -32 78
-49 125 -18 47 -43 112 -56 145 -13 33 -76 197 -139 365 -64 168 -121 314
-126 325 -12 24 -32 76 -36 90 -2 10 -109 284 -124 320 -5 11 -43 106 -84 210
l-74 190 -4921 3 -4921 2 0 -330z m6825 -382 c11 -3 52 -9 90 -12 91 -9 154
-16 185 -21 41 -6 114 -17 130 -20 8 -1 35 -6 60 -10 64 -10 79 -13 98 -19 9
-3 33 -8 52 -11 71 -12 309 -78 450 -125 392 -131 762 -322 1097 -567 62 -45
120 -88 128 -95 9 -7 21 -18 28 -23 7 -6 46 -38 87 -72 225 -185 584 -534 770
-749 189 -218 454 -599 585 -839 12 -22 32 -58 44 -80 13 -22 52 -95 88 -162
l65 -123 -53 31 c-52 31 -412 209 -502 248 -343 151 -869 317 -1237 390 -30 6
-66 14 -80 16 -14 3 -36 7 -50 10 -35 7 -307 53 -350 59 -328 46 -632 71 -975
81 -88 3 -1154 5 -2368 5 l-2208 0 2 563 c0 309 5 596 10 637 22 180 75 348
145 457 45 70 145 171 199 201 221 120 367 174 570 208 17 3 41 7 55 10 14 2
59 7 100 10 41 3 77 8 80 11 6 6 2682 -2 2705 -9z m530 -2798 c22 -5 94 -11
160 -14 120 -6 229 -14 295 -21 19 -2 64 -7 100 -10 36 -4 76 -8 90 -10 57 -8
153 -22 200 -30 17 -3 45 -7 63 -10 205 -35 548 -124 767 -200 527 -184 1043
-483 1465 -849 73 -63 394 -382 455 -451 84 -96 290 -370 318 -422 7 -12 18
-28 24 -35 7 -8 18 -23 25 -33 7 -11 48 -78 92 -150 188 -307 356 -653 477
-980 25 -66 48 -129 53 -140 11 -24 99 -301 106 -330 2 -11 15 -59 29 -106 21
-71 74 -280 91 -356 51 -234 112 -581 131 -743 3 -30 8 -62 9 -70 2 -9 6 -45
10 -80 3 -36 8 -81 10 -100 3 -32 6 -63 20 -225 37 -419 42 -1224 11 -1635
-16 -199 -23 -285 -32 -350 -2 -19 -6 -60 -9 -90 -3 -30 -7 -71 -10 -90 -2
-19 -7 -55 -10 -80 -4 -25 -8 -56 -10 -70 -2 -14 -7 -43 -9 -65 -3 -22 -7 -49
-10 -60 -2 -11 -7 -42 -10 -68 -4 -27 -9 -59 -12 -70 -2 -12 -7 -35 -10 -52
-12 -70 -46 -238 -68 -340 -19 -89 -94 -382 -105 -415 -5 -14 -24 -74 -42
-135 -71 -243 -205 -591 -317 -825 -31 -63 -56 -117 -57 -120 0 -3 -8 -18 -17
-35 -9 -16 -31 -59 -50 -95 -89 -168 -255 -449 -278 -470 -3 -3 -27 -39 -55
-80 -46 -69 -203 -282 -250 -339 -121 -148 -380 -415 -519 -536 -38 -33 -74
-65 -80 -70 -6 -6 -67 -55 -136 -108 -275 -214 -575 -394 -915 -547 -50 -23
-271 -110 -290 -115 -12 -2 -40 -13 -74 -26 -53 -22 -343 -102 -465 -129 -266
-58 -480 -90 -781 -115 -27 -2 -117 -7 -200 -10 -82 -4 -168 -10 -190 -15 -50
-12 -1319 -12 -1400 0 -33 4 -85 11 -115 14 -138 16 -254 34 -325 50 -80 18
-157 38 -197 50 -25 8 -61 17 -80 20 -79 13 -95 19 -148 47 -71 38 -115 79
-172 159 -47 68 -121 214 -134 265 -4 17 -10 35 -14 40 -8 11 -45 168 -55 233
-4 23 -9 54 -12 70 -3 15 -7 278 -10 584 l-5 558 2812 2 2813 3 74 185 c84
212 276 706 308 795 12 33 55 148 95 255 39 107 92 251 117 320 25 69 108 294
185 500 78 206 153 409 168 450 15 41 44 118 65 170 20 52 45 120 55 150 10
30 25 71 33 90 24 53 185 486 189 506 3 19 -25 37 -205 129 -59 31 -134 71
-165 90 l-57 34 -18 -22 c-9 -12 -29 -42 -44 -67 -86 -145 -383 -588 -513
-765 -39 -54 -147 -199 -167 -225 -29 -38 -250 -317 -265 -335 -9 -11 -25 -30
-35 -41 -10 -12 -30 -37 -45 -55 -72 -91 -255 -294 -354 -393 -432 -429 -822
-680 -1324 -849 -116 -39 -260 -81 -350 -101 -54 -13 -267 -56 -300 -61 -71
-11 -86 -14 -120 -19 -131 -18 -260 -33 -375 -42 -44 -3 -100 -8 -125 -11 -25
-3 -586 -7 -1247 -10 l-1203 -4 0 3101 0 3101 798 -4 c438 -3 808 -7 822 -9
14 -3 52 -8 85 -12 55 -7 160 -26 260 -46 136 -29 325 -107 445 -185 85 -54
216 -183 282 -275 159 -223 262 -552 323 -1032 2 -18 7 -67 11 -108 4 -41 8
-88 10 -105 10 -109 23 -386 23 -537 l1 -108 300 0 300 0 0 2770 0 2770 -300
0 -300 0 -1 -97 c-1 -177 -8 -332 -25 -528 -6 -73 -39 -338 -49 -390 -52 -283
-112 -477 -207 -672 -140 -287 -333 -460 -634 -569 -123 -44 -242 -72 -409
-94 -44 -6 -93 -14 -110 -17 -16 -3 -389 -8 -828 -10 l-797 -5 1 1004 c0 1060
1 1064 47 1198 68 195 207 351 396 443 88 43 153 65 301 103 22 5 153 26 190
30 22 3 58 6 80 9 22 2 109 7 194 11 85 3 175 10 200 14 65 11 1217 11 1266 0z
m-4330 -220 c80 -55 184 -172 237 -270 26 -47 76 -168 85 -204 49 -203 46
-129 50 -1158 l4 -958 -220 0 -221 0 0 1316 c0 1049 3 1314 13 1308 6 -4 30
-20 52 -34z m375 -6345 c0 -1658 -3 -3015 -6 -3015 -16 0 -134 88 -176 132
-119 122 -196 293 -233 513 -3 17 -8 44 -12 60 -4 17 -9 1221 -10 2678 l-3
2647 220 0 220 0 0 -3015z"/>
</g>
</svg>
